<?xml version="1.0" encoding="utf-8"?>
<!-- Generator: Adobe Illustrator 16.0.0, SVG Export Plug-In . SVG Version: 6.00 Build 0)  -->
<!DOCTYPE svg PUBLIC "-//W3C//DTD SVG 1.1//EN" "http://www.w3.org/Graphics/SVG/1.1/DTD/svg11.dtd">
<svg version="1.1" id="Слой_1" xmlns="http://www.w3.org/2000/svg" xmlns:xlink="http://www.w3.org/1999/xlink" x="0px" y="0px"
	 width="756px" height="436px" viewBox="0 0 756 436" enable-background="new 0 0 756 436" xml:space="preserve">
<g>
	<g>
		<path fill="#B0393D" d="M725.184,39.559l0.941,355.003l-695.292,1.843L29.891,41.403L725.184,39.559 M728.176,36.551
			l-701.293,1.86l0.958,361.002l701.292-1.857L728.176,36.551L728.176,36.551z"/>
	</g>
	<path fill="#FFFFFF" d="M452.543,23.987L717.301,0l0.437,7.101L452.543,23.987L452.543,23.987z"/>
	<path fill="#FFFFFF" d="M303.308,412.014L38.551,436l-0.437-7.101L303.308,412.014L303.308,412.014z"/>
	<g>
		<path fill="#FFFFFF" d="M714.933,20.267l20.818,354.688L41.083,415.697L20.265,61.01L714.933,20.267 M717.752,17.097
			L17.095,58.191l21.17,360.677l700.657-41.094L717.752,17.097L717.752,17.097z"/>
	</g>
	<path opacity="0.3" fill="#020202" enable-background="new    " d="M35.977,19.934L737.94,54.681l-17.898,361.35L18.076,381.283
		L35.977,19.934z"/>
	<path fill="#B0393D" d="M736.986,189.667L756,377.586l-7.066,0.169L736.986,189.667L736.986,189.667z"/>
	<path fill="#B0393D" d="M19.014,246.284L0,58.365l7.067-0.169L19.014,246.284L19.014,246.284z"/>
</g>
</svg>
